<svg xmlns="http://www.w3.org/2000/svg" height="18" width="18"><path d="M16.583 6.167v9.083q0 .562-.385.948-.386.385-.948.385H4.75q-.562 0-.948-.385-.385-.386-.385-.948V4.75q0-.562.385-.948.386-.385.948-.385h9.083Zm-1.083.458L13.375 4.5H4.75q-.104 0-.177.073T4.5 4.75v10.5q0 .104.073.177t.177.073h10.5q.104 0 .177-.073t.073-.177ZM10 14.146q.771 0 1.302-.542t.531-1.292q0-.77-.531-1.302-.531-.531-1.302-.531t-1.302.531q-.531.532-.531 1.302 0 .75.531 1.292t1.302.542Zm-4.188-5.75h6.355V5.812H5.812ZM4.5 6.896V15.5v-11Z"/></svg>