<svg xmlns="http://www.w3.org/2000/svg" height="40" width="40"><path d="M23.458 35.875q-.833.792-2.02.792-1.188 0-1.98-.792L4.125 20.542q-.417-.417-.604-.938-.188-.521-.188-1.062V6.125q0-1.208.792-2t2-.792h12.417q.541 0 1.083.188.542.187 1 .604l15.25 15.292q.833.833.833 2 0 1.166-.833 2.041ZM21.5 33.958l12.417-12.416L18.542 6.125H6.125v12.417ZM10.417 12.667q.916 0 1.604-.667.687-.667.687-1.625 0-.917-.687-1.583-.688-.667-1.604-.667-.917 0-1.605.667-.687.666-.687 1.583 0 .958.687 1.625.688.667 1.605.667ZM6.125 6.125Z"/></svg>