<svg xmlns="http://www.w3.org/2000/svg" fill="#a0a0a0" height="20" width="20"><path d="m13 10.875-1.021-1.021q.083-.854-.51-1.396-.594-.541-1.323-.458L9.125 6.979q.208-.062.427-.094.219-.031.448-.031 1.312 0 2.229.917T13.146 10q0 .229-.031.458-.032.23-.115.417Zm2.75 2.729-.792-.771q.75-.583 1.365-1.281T17.354 10q-1.021-2.104-3.01-3.302Q12.354 5.5 10 5.5q-.542 0-1.062.062-.521.063-1.021.209l-.896-.896Q7.75 4.604 8.5 4.51q.75-.093 1.5-.093 2.771 0 5.135 1.489Q17.5 7.396 18.542 10q-.438 1.083-1.146 1.969-.708.885-1.646 1.635Zm.208 3.917-2.562-2.604q-.708.312-1.573.489T10 15.583q-2.771 0-5.125-1.489Q2.521 12.604 1.458 10q.48-1.188 1.292-2.177.812-.99 1.833-1.719L2.479 4.021l.771-.792 13.5 13.521ZM5.354 6.896q-.792.562-1.531 1.354-.74.792-1.177 1.75 1.021 2.104 3.01 3.302Q7.646 14.5 10 14.5q.688 0 1.375-.115.687-.114 1.187-.281l-1.229-1.229q-.291.125-.645.198-.355.073-.688.073-1.312 0-2.229-.917T6.854 10q0-.312.094-.677.094-.365.177-.656ZM11 9Zm-1.604 1.812Z"/></svg>